<svg xmlns="http://www.w3.org/2000/svg" xmlns:xlink="http://www.w3.org/1999/xlink" viewBox="0 0 240 240">
    <defs>
        <style>
            .a {
                fill: none;
            }

            .b {
                fill: url(#a);
            }

            .c,
            .d {
                fill: #be232f;
            }

            .d {
                isolation: isolate;
                opacity: 0.35;
            }

            .e {
                fill: url(#b);
            }

            .f {
                fill: url(#c);
            }

            .g {
                fill: url(#d);
            }

            .h {
                fill: url(#e);
            }

            .i {
                fill: url(#f);
            }

            .j {
                fill: url(#g);
            }

            .k {
                fill: url(#h);
            }

            .l {
                fill: url(#i);
            }

            .m {
                fill: url(#j);
            }

            .n {
                fill: url(#k);
            }

            .o {
                fill: url(#l);
            }

            .p {
                fill: url(#m);
            }

            .q {
                fill: url(#n);
            }

            .r {
                fill: url(#o);
            }

            .s {
                fill: url(#p);
            }

            .t {
                fill: url(#q);
            }
        </style>
        <linearGradient id="a" x1="-12595.71" y1="-687.96" x2="-12374.8" y2="-429.65" gradientTransform="matrix(-0.02, -0.12, 0.12, -0.02, -152.91, -1444.95)" gradientUnits="userSpaceOnUse">
            <stop offset="0" stop-color="#f69a24" />
            <stop offset="0.31" stop-color="#f79b24" />
            <stop offset="0.84" stop-color="#e97927" />
        </linearGradient>
        <linearGradient id="b" x1="-14127.8" y1="-791.26" x2="-12551.71" y2="-791.26" gradientTransform="matrix(-0.02, -0.12, 0.12, -0.02, -152.91, -1444.95)" gradientUnits="userSpaceOnUse">
            <stop offset="0.32" stop-color="#9f2065" />
            <stop offset="0.63" stop-color="#c92039" />
            <stop offset="0.75" stop-color="#ce2335" />
            <stop offset="1" stop-color="#e97927" />
        </linearGradient>
        <linearGradient id="c" x1="-13937.54" y1="-631.52" x2="-12998.35" y2="-631.52" gradientTransform="matrix(-0.02, -0.12, 0.12, -0.02, -152.91, -1444.95)" gradientUnits="userSpaceOnUse">
            <stop offset="0" stop-color="#282762" />
            <stop offset="0.1" stop-color="#66308d" />
            <stop offset="0.79" stop-color="#9f2065" />
            <stop offset="0.95" stop-color="#cd2032" />
        </linearGradient>
        <linearGradient id="d" x1="-14039.28" y1="-805.05" x2="-12463.19" y2="-805.05" xlink:href="#b" />
        <linearGradient id="e" x1="-13924.33" y1="-782.89" x2="-13096.05" y2="-782.89" xlink:href="#c" />
        <linearGradient id="f" x1="-14039.28" y1="-641.73" x2="-12463.19" y2="-641.73" xlink:href="#b" />
        <linearGradient id="g" x1="-14137.05" y1="-650.16" x2="-12560.96" y2="-650.16" xlink:href="#b" />
        <linearGradient id="h" x1="-14039.28" y1="-592.78" x2="-12463.19" y2="-592.78" xlink:href="#b" />
        <linearGradient id="i" x1="-14039.28" y1="-598.44" x2="-12463.19" y2="-598.44" xlink:href="#b" />
        <linearGradient id="j" x1="-10418.66" y1="2420.26" x2="-10197.75" y2="2678.58" gradientTransform="translate(655.5 -1302.9) rotate(-56.5) scale(0.13)" xlink:href="#a" />
        <linearGradient id="k" x1="-12002.56" y1="2468.35" x2="-10426.47" y2="2468.35" gradientTransform="translate(655.5 -1302.9) rotate(-56.5) scale(0.13)" xlink:href="#b" />
        <linearGradient id="l" x1="-11812.29" y1="2627.93" x2="-10873.1" y2="2627.93" gradientTransform="translate(655.5 -1302.9) rotate(-56.5) scale(0.13)" xlink:href="#c" />
        <linearGradient id="m" x1="-11914.03" y1="2455.05" x2="-10337.94" y2="2455.05" gradientTransform="translate(655.5 -1302.9) rotate(-56.5) scale(0.13)" xlink:href="#b" />
        <linearGradient id="n" x1="-11799.08" y1="2477.46" x2="-10970.81" y2="2477.46" gradientTransform="translate(655.5 -1302.9) rotate(-56.5) scale(0.13)" xlink:href="#c" />
        <linearGradient id="o" x1="-11914.03" y1="2617.56" x2="-10337.94" y2="2617.56" gradientTransform="translate(655.5 -1302.9) rotate(-56.5) scale(0.13)" xlink:href="#b" />
        <linearGradient id="p" x1="-12011.81" y1="2609.13" x2="-10435.72" y2="2609.13" gradientTransform="translate(655.5 -1302.9) rotate(-56.5) scale(0.13)" xlink:href="#b" />
        <linearGradient id="q" x1="-11914.03" y1="2666.33" x2="-10337.94" y2="2666.33" gradientTransform="translate(655.5 -1302.9) rotate(-56.5) scale(0.13)" xlink:href="#b" />
    </defs>
    <rect class="a" width="240" height="240" />
    <path class="b" d="M48.3,23.8a67.7,67.7,0,0,0-2.8,19l10.2,4.9a121.3,121.3,0,0,1,.7-18.1,1.7,1.7,0,0,1,.1-.7c0,.2-.1.4-.1.7a107,107,0,0,0,0,17.9c5.2-4.5,10.3-9.3,15.1-14.3A22.4,22.4,0,0,0,60.1,21S51,17.4,48.3,23.8Z" />
    <path class="a" d="M74.8,75.2h.1l-.5.5h-.1Z" />
    <path class="a" d="M81.1,92.8l-.9,1Z" />
    <path class="a" d="M75.2,147c0-.2-.1-.3-.1-.5-.9-3.2-1.7-6.2-2.5-9.3s-1.8-6.7-2.6-9.9-1.7-6.7-2.4-9.9-1.5-6.6-2.2-9.8-1.1-5-1.6-7.4-.3-1.6-.5-2.4l-.9-4.7c-.3-1.5-.5-2.7-.8-4.1a5.9,5.9,0,0,0-.2-1.3v-.2l-.5.4-1.1-.5c0,.1.1.2.1.3.4,2.1.7,4.1,1.1,6.2s.5,2.4.7,3.6c.6,3.3,1.3,6.6,2,9.9s1.4,6.7,2.2,10,1.5,6.6,2.3,9.8l2.4,9.6c.9,3.3,1.7,6.6,2.6,9.8l.6,2.2c.7,2.6,1.5,5.1,2.2,7.6l1.6.9.5-.5v-.2C77,153.3,76.1,150.1,75.2,147Z" />
    <path class="c" d="M83.7,102.1l-1.5,1.5h0a6,6,0,0,0,.8-.8Z" />
    <path class="d" d="M83.7,102.1l-1.5,1.5h0a6,6,0,0,0,.8-.8Z" />
    <path class="c" d="M79.9,94h0l.3-.2.9-1L79.9,94Z" />
    <path class="d" d="M79.9,94h0l.3-.2.9-1L79.9,94Z" />
    <path class="e" d="M58.4,77.8c-.5-3.4-1-6.7-1.3-10s-.7-6.7-1-10.1v-.5c-.2-3.3-.4-6.4-.5-9.5L45.5,42.8c0,.6-.1,1.2-.1,1.9-.1,2.5-.2,5-.2,7.8v9.6c.1,3.1.2,6.3.4,9.6s.3,5.6.6,8.5v.3l13.6,6.9C59.3,84.2,58.8,81,58.4,77.8Z" />
    <path class="f" d="M78.5,158.3c.7,2.5,1.5,5.2,2.3,7.8h0c.2.4.2.8.4,1.2s1.1,3.3,2.2,7a13.5,13.5,0,0,1,7.8,1.9,11.1,11.1,0,0,0-7.4-4.1,23.9,23.9,0,0,0,13-21.3l-.3-2.3a9.6,9.6,0,0,1-5.5,8.2h0a27.2,27.2,0,0,0,4.4-16.9,35.6,35.6,0,0,0-.6-4.4,21.8,21.8,0,0,1-12.6,17.6L78,156.9C78.2,157.3,78.3,157.8,78.5,158.3Z" />
    <path class="g" d="M73.2,146.7c-.9-3.2-1.8-6.5-2.6-9.8s-1.7-6.4-2.5-9.6-1.5-6.6-2.3-9.8-1.5-6.7-2.2-10-1.3-6.7-2-10c-.2-1.2-.4-2.3-.7-3.5s-.7-4.1-1-6.2v-.3L46.3,80.6v.6c.3,3.1.5,6.2.9,9.3s.8,6.3,1.2,9.6.9,5.4,1.3,8.1l.3,1.6c.6,3.4,1.3,6.6,2,9.7s1.7,6.6,2.6,9.7,1.1,3.8,1.7,5.6l1.6,4.6c1.3,3.5,2.8,6.9,4.3,10.2l13.7,7-2.1-7.7Z" />
    <path class="h" d="M62.4,150.1a130,130,0,0,0,6.3,11.6l.2.4a26.1,26.1,0,0,0-10.4-.8,37.2,37.2,0,0,1,16.8,9.8,18.3,18.3,0,0,1-7.9,3.9,17.2,17.2,0,0,0,8.7-.7,21.2,21.2,0,0,0-5.3,10.3,21.6,21.6,0,0,1,8.6-9.1c4.1,13.6,9,28.4,14.5,43.8a4,4,0,0,0,.7-3.8c-1-2.8-7.6-21.2-15-46.2l-.6-2.2a1.1,1.1,0,0,1-.2-.6c-.8-2.6-1.6-5.3-2.3-8l-.6-1.9h0l-13.7-7Z" />
    <path class="i" d="M61.4,87.7a5.9,5.9,0,0,1,.2,1.3c.3,1.4.5,2.7.8,4.1l.9,4.6c.2.8.3,1.6.5,2.4.5,2.5,1,5,1.6,7.5s1.4,6.4,2.2,9.8,1.5,6.5,2.4,9.9,1.6,6.5,2.6,9.9,1.6,6.1,2.5,9.3a4.3,4.3,0,0,1,.1.5c.9,3.1,1.8,6.3,2.8,9.6v.2l4.2-3.8-.4.2a39.1,39.1,0,0,0,10.1-22.3,57.1,57.1,0,0,0-.1-12.4,94.3,94.3,0,0,0-2-10.6c-.8-3.3-1.8-6.7-3-10.4a25.1,25.1,0,0,1-3.2,4.6l-.7.7-.8.8h0a23.9,23.9,0,0,0,3-17.9A22,22,0,0,1,81,92.8l-.9,1-.3.2h0a21.8,21.8,0,0,0,2.7-5.8l.3-1.2.3-1.9c.1-.4.1-.8.2-1.2v-3a2.8,2.8,0,0,0-.1-.9c-.1-.5-.1-.9-.2-1.3-.4-1.9-.7-3.6-1.1-5a19.4,19.4,0,0,1-.5-2l-.3-.7-.6-1.7a13.4,13.4,0,0,0-.7-1.8h0l-.3.9A30.1,30.1,0,0,1,74.9,75l3.8-3.5L74.8,75h0l-.6.6h.1l-13,11.9C61.4,87.6,61.4,87.6,61.4,87.7Z" />
    <path class="j" d="M56.4,47.5c.1,2.8.4,6,.7,9.6v.5c.3,3.1.7,6.5,1.2,10.1s.9,6.4,1.4,10,1.1,6.3,1.6,9.8l13-12a21.2,21.2,0,0,0,3.3-11.7c0-1-.1-2.1-.2-3.2a86,86,0,0,0-1.1-10.2,93.7,93.7,0,0,0-1.9-9.2,36.8,36.8,0,0,0-1.5-4.7l-1.4-3.2C66.7,38.2,61.6,43,56.4,47.5Z" />
    <path class="c" d="M83,102.9l-.8.7h0Z" />
    <path class="d" d="M83,102.9l-.8.7h0Z" />
    <path class="k" d="M83,102.9l-.8.7h0Z" />
    <path class="c" d="M79.9,94l.3-.2Z" />
    <path class="d" d="M79.9,94l.3-.2Z" />
    <path class="l" d="M79.9,94l.3-.2Z" />
    <path class="m" d="M181.5,26.4a75.4,75.4,0,0,0-17.3,13l4.3,12.1a142.3,142.3,0,0,1,15-14.1l.6-.5-.6.5a129.7,129.7,0,0,0-14.3,14.4,230.4,230.4,0,0,0,23.5.5,24.5,24.5,0,0,0,.5-18.8S188.8,23.4,181.5,26.4Z" />
    <path class="a" d="M162.1,88.8h0Z" />
    <path class="a" d="M153.1,107.9h0Z" />
    <path class="a" d="M105.3,146.9l.3-.5c1.8-3.3,3.6-6.4,5.4-9.5s3.9-6.8,5.8-10l5.9-9.9,6-9.6,4.6-7.3a18.8,18.8,0,0,0,1.6-2.3l2.9-4.4,2.7-3.9.8-1.3.2-.2h-.7l-.5-1.2c0,.1-.1.2-.2.3l-4,5.8c-.7,1.2-1.5,2.3-2.3,3.5-2.2,3.1-4.2,6.3-6.3,9.6s-4.2,6.5-6.2,9.8l-5.9,9.7-5.7,9.7c-2,3.3-3.9,6.6-5.7,10a23.9,23.9,0,0,0-1.2,2.2l-4.4,7.9.7,1.9h.8c0-.1.1-.2.1-.3C101.7,153.4,103.6,150.1,105.3,146.9Z" />
    <path class="c" d="M147.8,117.5h0Z" />
    <path class="d" d="M147.8,117.5h0Z" />
    <path class="c" d="M151.2,108Z" />
    <path class="d" d="M151.2,108Z" />
    <path class="n" d="M146.7,77.8l6.9-9.1c2.4-3,4.8-6,7.3-8.8l.4-.5c2.4-2.8,4.7-5.5,7.1-8l-4.3-12-1.6,1.4-6.3,6.1-7.6,7.8c-2.4,2.5-4.8,5.2-7.3,8L135,70l-.2.3,5.5,16.4Z" />
    <path class="o" d="M98.9,158.6l-4.3,8.1h0A6.7,6.7,0,0,0,94,168l-3.9,7.4a15.5,15.5,0,0,1,4.9,7.7,12.4,12.4,0,0,0-2.8-9.1c11.1,2.1,21.2.7,27.4-6.8l1.6-2.1a11.1,11.1,0,0,1-11,2.3h0a31,31,0,0,0,17-10.3l3.1-3.9a24.9,24.9,0,0,1-24.2,4.1l-6.3-.3Z" />
    <path class="p" d="M103.9,145l5.7-10,5.7-9.7c2-3.2,4-6.4,5.9-9.7l6.2-9.8,6.3-9.6,2.3-3.4c1.3-2,2.7-3.9,4.1-5.8a.8.8,0,0,1,.2-.4l-5.4-16.3-.5.6c-2.2,2.7-4.5,5.4-6.7,8.2l-6.6,8.7c-1.9,2.5-3.6,5-5.4,7.5l-1.1,1.6c-2.1,3.2-4.2,6.3-6.1,9.4s-3.9,6.7-5.6,9.8L99.8,122l-2.3,5c-1.7,3.8-3.3,7.7-4.7,11.6l5.5,16.5,4.4-7.9Z" />
    <path class="q" d="M92.6,139.2a122.7,122.7,0,0,0-4.2,14.3,4.3,4.3,0,0,1-.1.5,31.5,31.5,0,0,0-7.8-8.9,44.1,44.1,0,0,1,5.8,21.2,19.5,19.5,0,0,1-9.6-3.1,20.1,20.1,0,0,0,7.6,6.3,24.2,24.2,0,0,0-12.4,4.2,23.4,23.4,0,0,1,14.1-.5c-7.5,14.2-15.2,30-23.1,46.8a4.8,4.8,0,0,0,3.6-2.6c1.4-3,10.7-23,24.6-49.1l1.2-2.2a2.1,2.1,0,0,1,.4-.6c1.4-2.8,2.9-5.5,4.5-8.4l1.1-1.9h0l-5.5-16.4A.8.8,0,0,0,92.6,139.2Z" />
    <path class="r" d="M141.3,88.2l-.8,1.2-2.7,4-2.9,4.4-1.6,2.3-4.6,7.3c-2,3.1-4,6.2-6,9.6l-5.9,9.9c-1.9,3.2-3.9,6.5-5.8,10s-3.6,6.2-5.4,9.5l-.3.4c-1.7,3.3-3.6,6.6-5.4,10a.4.4,0,0,0-.1.3l6.3.2-.4-.2a44.6,44.6,0,0,0,25.8-9.9,58.7,58.7,0,0,0,9.8-10.1,118.8,118.8,0,0,0,6.8-10.1c1.9-3.3,3.9-6.8,5.8-10.8a22,22,0,0,1-6.2,1.2h-2.4a27.2,27.2,0,0,0,16.6-12.1,25.2,25.2,0,0,1-8.9,2.5h-1.9a28.1,28.1,0,0,0,6.8-2.6l1.2-.7,1.7-1.2,1.1-.9a13.1,13.1,0,0,0,2.3-2.4l.7-.8.9-1.2c1.2-1.8,2.3-3.4,3.1-4.9l1.1-2a4.3,4.3,0,0,1,.4-.7,15.4,15.4,0,0,0,.9-1.9,16.7,16.7,0,0,0,.8-2h0l-.9.4a31.1,31.1,0,0,1-9,1.7l5.8.2-5.8-.2h-.9l-19.9-.8C141.4,88.1,141.4,88.1,141.3,88.2Z" />
    <path class="s" d="M169.2,51.8c-2.1,2.4-4.5,5.2-7,8.3l-.4.5c-2.3,2.7-4.6,5.7-7.1,9s-4.4,5.9-6.8,9.3-4.2,5.9-6.4,9.1l19.9.7a23.9,23.9,0,0,0,12-6.9l2.4-2.6c2.5-3,4.9-6,7.2-9.2s3.9-5.9,5.7-8.9,1.7-3.3,2.5-5,1-2.5,1.4-3.7A228.5,228.5,0,0,1,169.2,51.8Z" />
    <path class="c" d="M146.6,117.5h0Z" />
    <path class="d" d="M146.6,117.5h0Z" />
    <path class="t" d="M146.6,117.5h0Z" />
</svg>