<svg
   xmlns:dc="http://purl.org/dc/elements/1.1/"
   xmlns:cc="http://creativecommons.org/ns#"
   xmlns:rdf="http://www.w3.org/1999/02/22-rdf-syntax-ns#"
   xmlns:svg="http://www.w3.org/2000/svg"
   xmlns="http://www.w3.org/2000/svg"
   id="svg175"
   version="1.1"
   viewBox="0 0 95.973373 135.46666"
   height="135.46666mm"
   width="95.973373mm">
  <defs
     id="defs169" />
  <metadata
     id="metadata172">
    <rdf:RDF>
      <cc:Work
         rdf:about="">
        <dc:format>image/svg+xml</dc:format>
        <dc:type
           rdf:resource="http://purl.org/dc/dcmitype/StillImage" />
        <dc:title></dc:title>
      </cc:Work>
    </rdf:RDF>
  </metadata>
  <g
     transform="translate(189.34978,-0.21309609)"
     id="layer1">
    <g
       transform="matrix(0.26458333,0,0,0.26458333,-209.09643,0.21309609)"
       id="g3054">
      <polygon
         style="fill:#e44d26"
         points="404.321,470.819 255.778,512 107.644,470.877 74.633,100.62 437.367,100.62 "
         id="polygon3028" />
      <polygon
         style="fill:#f16529"
         points="404.27,130.894 256,130.894 256,480.523 376.03,447.246 "
         id="polygon3030" />
      <polygon
         style="fill:#ebebeb"
         points="154.38,313.627 256,313.627 256,268.217 195.91,268.217 191.76,221.716 256,221.716 256,176.305 255.843,176.305 142.132,176.305 143.219,188.488 "
         id="polygon3032" />
      <polygon
         style="fill:#ebebeb"
         points="256,386.153 255.801,386.206 205.227,372.55 201.994,336.333 177.419,336.333 156.409,336.333 162.771,407.634 255.791,433.457 256,433.399 "
         id="polygon3034" />
      <path
         d="m 108.382,0 h 23.077 v 22.8 h 21.11 V 0 h 23.078 V 69.044 H 152.57 v -23.12 h -21.11 v 23.12 H 108.383 V 0 Z"
         id="path3036" />
      <path
         d="M 205.994,22.896 H 185.678 V 0 h 63.72 V 22.896 H 229.073 V 69.044 H 205.995 V 22.896 Z"
         id="path3038" />
      <path
         d="m 259.511,0 h 24.063 L 298.376,24.26 313.163,0 h 24.072 V 69.044 H 314.253 V 34.822 l -15.877,24.549 h -0.397 L 282.091,34.822 v 34.222 h -22.58 z"
         id="path3040" />
      <path
         d="m 348.72,0 h 23.084 v 46.222 h 32.453 V 69.044 H 348.72 Z"
         id="path3042" />
      <polygon
         style="fill:#ffffff"
         points="349.62,399.962 360.291,280.411 361.399,268.217 349.162,268.217 255.843,268.217 255.843,313.627 311.761,313.627 306.49,372.521 255.843,386.191 255.843,433.435 348.937,407.634 "
         id="polygon3044" />
      <polygon
         style="fill:#ffffff"
         points="368.511,188.488 369.597,176.305 255.843,176.305 255.843,204.509 255.843,221.605 255.843,221.716 365.385,221.716 365.531,221.716 366.442,211.509 "
         id="polygon3046" />
    </g>
  </g>
</svg>
