<?xml version="1.0" standalone="no"?>
<!DOCTYPE svg PUBLIC "-//W3C//DTD SVG 20010904//EN"
 "http://www.w3.org/TR/2001/REC-SVG-20010904/DTD/svg10.dtd">
<svg version="1.0" xmlns="http://www.w3.org/2000/svg"
 width="280.000000pt" height="280.000000pt" viewBox="0 0 280.000000 280.000000"
 preserveAspectRatio="xMidYMid meet">

<g transform="translate(0.000000,280.000000) scale(0.100000,-0.100000)"
fill="#000000" stroke="none">
<path d="M1220 2794 c-394 -48 -720 -227 -938 -517 -264 -349 -344 -791 -220
-1212 55 -189 174 -395 304 -527 32 -32 60 -58 63 -58 3 0 434 428 956 951
l950 951 -63 58 c-178 165 -413 282 -664 331 -99 19 -314 32 -388 23z m260
-184 c12 -7 -13 -36 -117 -139 l-131 -130 -69 20 c-109 31 -261 59 -357 66
l-89 6 24 20 c71 58 309 142 454 160 65 8 271 6 285 -3z m359 -98 c83 -35 215
-115 238 -143 9 -12 -18 -43 -152 -175 l-163 -160 -29 20 c-15 12 -35 28 -44
37 -22 22 -144 100 -218 140 -33 18 -60 34 -58 36 1 1 67 68 147 148 165 166
140 157 279 97z m-1032 -262 c95 -9 200 -27 265 -46 14 -4 -2 -25 -72 -97
l-90 -92 -122 123 c-68 67 -116 122 -108 122 8 0 65 -5 127 -10z m-27 -359
c-16 -30 -163 -162 -171 -154 -16 16 -48 192 -54 299 l-7 109 120 -119 c93
-92 119 -123 112 -135z m578 205 c37 -18 85 -44 108 -57 49 -29 173 -122 174
-130 0 -4 -71 -75 -157 -158 l-157 -152 -145 145 -146 146 120 120 c66 66 123
120 128 120 5 0 39 -15 75 -34z m-979 -100 c1 -67 37 -267 61 -346 11 -36 20
-69 20 -73 0 -4 -59 -67 -132 -140 l-132 -132 -8 55 c-12 76 0 249 23 348 24
105 80 254 122 327 29 51 33 54 38 33 4 -13 7 -45 8 -72z m687 -369 l144 -143
-155 -160 -156 -159 -20 25 c-45 56 -129 190 -167 262 l-39 77 120 121 c67 66
123 120 125 120 2 0 68 -64 148 -143z m-498 -279 c33 -63 100 -165 155 -235
26 -34 47 -65 47 -70 0 -4 -72 -80 -160 -167 -178 -177 -165 -172 -222 -83
-18 29 -35 54 -38 57 -12 9 -88 175 -98 211 l-10 37 146 146 c80 80 149 146
152 146 3 0 15 -19 28 -42z"/>
<path fill="#0f9b2e" d="M1425 1380 l-950 -950 50 -48 c99 -94 226 -182 340 -236 107 -51 142
-66 154 -66 6 0 30 -7 55 -15 151 -51 413 -69 588 -40 90 16 258 60 288 76 8
5 38 18 65 30 46 20 176 92 200 111 5 4 44 34 85 66 150 117 272 272 354 447
21 44 41 87 45 95 17 32 61 200 76 288 35 211 3 517 -75 707 -40 100 -133 269
-182 330 -38 49 -132 155 -137 155 -3 0 -433 -428 -956 -950z m993 637 c45
-70 67 -109 111 -210 43 -96 48 -86 -113 -247 -80 -80 -149 -146 -153 -147 -5
-2 -18 18 -30 44 -26 56 -115 193 -167 256 -20 24 -36 47 -36 51 0 13 325 333
333 329 4 -3 29 -37 55 -76z m-450 -446 c60 -83 73 -103 132 -218 l38 -72
-124 -127 -123 -127 -151 152 -150 152 157 159 c87 88 159 159 161 160 1 0 28
-35 60 -79z m649 -258 c-7 -234 -55 -403 -165 -583 l-22 -35 -1 30 c-1 90 -39
327 -62 396 -38 112 -44 99 104 248 88 89 135 129 142 122 6 -6 8 -71 4 -178z
m-987 -247 c77 -76 140 -144 140 -150 0 -6 -54 -65 -119 -130 l-119 -119 -107
57 c-105 55 -255 161 -255 180 0 15 294 305 307 303 7 -1 76 -65 153 -141z
m591 -52 c20 -78 46 -330 36 -341 -10 -9 -239 226 -234 241 5 18 161 173 171
171 6 -1 18 -33 27 -71z m-196 -345 l120 -121 -105 6 c-111 6 -298 40 -314 56
-10 10 149 180 169 180 6 0 64 -55 130 -121z m-943 84 c18 -16 42 -36 53 -46
32 -29 237 -157 252 -157 7 0 13 -3 13 -8 0 -4 -67 -74 -149 -156 l-150 -150
-43 13 c-84 25 -322 157 -342 190 -6 9 310 340 326 341 3 0 21 -12 40 -27z
m688 -338 c128 -26 198 -35 266 -35 67 0 68 -1 47 -18 -72 -54 -215 -113 -388
-157 -74 -19 -306 -30 -360 -17 l-40 9 136 136 136 137 69 -21 c38 -12 98 -27
134 -34z"/>
</g>
</svg>
