<?xml version="1.0" encoding="UTF-8" standalone="no"?>
<svg
   height="2461.575"
   viewBox="0.1 -0.1 960.09998 945.02077"
   width="2500"
   version="1.1"
   id="svg4"
   xmlns="http://www.w3.org/2000/svg"
   xmlns:svg="http://www.w3.org/2000/svg">
  <defs
     id="defs8" />
  <path
     d="m 832.59999,911.13717 h -52.6 c 0,-424.1 -349.9,-769.1 -779.89999,-769.1 V 89.437172 c 458.99999,0 832.49999,368.499998 832.49999,821.699998 z m 36.4,-282.9 c -63.2,-266 -278.7,-488 -549,-565.699998 l 12.1,-42.2 c 285.3,81.999998 512.8,316.499998 579.5,597.799998 z m 59.3,-249.7 c -65.1,-142 -176.2,-265.9 -312.5,-348.799998 l 18.3,-29.99999964 c 142.3,86.59999964 258,215.79999764 326.09996,364.19999764 z"
     fill="#499cd2"
     id="path2" />
  <path
     style="stroke-width:2.97498"
     d="m 49.337612,794.07056 c 29.541532,18.02832 90.855768,39.15066 138.276908,39.15066 48.64085,0 68.66244,-16.9574 68.66244,-43.28588 0,-26.32855 -15.76735,-39.12096 -76.01064,-59.17228 C 73.553894,694.82532 32.499269,636.72405 33.451247,575.4395 c 0,-96.18096 82.436573,-168.97867 210.152313,-168.97867 60.2433,0 114.06059,13.62542 145.77387,29.51179 l -28.47051,110.8774 c -23.23461,-12.67344 -67.59149,-29.51178 -111.94841,-29.51178 -39.12091,0 -61.31425,15.76739 -61.31425,42.2149 0,24.30556 20.17034,37.00869 83.47783,59.17229 98.17423,33.79571 139.4669,83.29933 140.41889,159.48846 0,96.06197 -76.01063,166.86647 -223.89672,166.86647 -67.59148,0 -127.715738,-14.8749 -166.836714,-35.9378 z"
     id="path854" />
</svg>
