<?xml version="1.0" encoding="utf-8"?>
<!-- Svg Vector Icons : http://www.onlinewebfonts.com/icon -->
<!DOCTYPE svg PUBLIC "-//W3C//DTD SVG 1.1//EN" "http://www.w3.org/Graphics/SVG/1.1/DTD/svg11.dtd">
<svg version="1.1" xmlns="http://www.w3.org/2000/svg" xmlns:xlink="http://www.w3.org/1999/xlink" x="0px" y="0px" viewBox="0 0 1000 1000" enable-background="new 0 0 1000 1000" xml:space="preserve">
<metadata> Svg Vector Icons : http://www.onlinewebfonts.com/icon </metadata>
<g><g><g><path d="M862.2,223H137.8C65.4,223,10,278.4,10,350.9v298.3C10,721.6,65.4,777,137.8,777h724.3c72.4,0,127.8-55.4,127.8-127.8V350.9C990,278.4,934.6,223,862.2,223z M223,478.7h42.6c46.9,0,85.2,38.3,85.2,85.2s-38.3,85.2-85.2,85.2H223c-46.9,0-85.2-38.3-85.2-85.2l0,0h42.6l0,0c0,21.3,17,42.6,42.6,42.6h42.6c25.6,0,42.6-17,42.6-42.6s-21.3-42.6-42.6-42.6H223c-46.9,0-85.2-38.3-85.2-85.2c0-46.9,38.3-85.2,85.2-85.2h42.6c46.9,0,85.2,38.3,85.2,85.2h-42.6c0-21.3-17-42.6-42.6-42.6H223c-25.6,0-42.6,17-42.6,42.6S201.7,478.7,223,478.7z M589.5,683.2l-38.3-38.3c-8.5,4.3-21.3,4.3-29.8,4.3h-42.6c-46.9,0-85.2-38.3-85.2-85.2V436.1c0-46.9,38.3-85.2,85.2-85.2h42.6c46.9,0,85.2,38.3,85.2,85.2v127.8c0,21.3-8.5,42.6-21.3,55.4l34.1,34.1L589.5,683.2z M862.2,649.1h-213V350.9h42.6v255.7h170.4V649.1z"/><path d="M521.3,393.5h-42.6c-25.6,0-42.6,17-42.6,42.6v127.8c0,25.6,17,42.6,42.6,42.6h34.1l-46.9-46.9l29.8-29.8l59.6,59.7c4.3-8.5,8.5-17,8.5-25.6V436.1C563.9,410.5,546.9,393.5,521.3,393.5z"/></g></g><g></g><g></g><g></g><g></g><g></g><g></g><g></g><g></g><g></g><g></g><g></g><g></g><g></g><g></g><g></g></g>
</svg>