<svg
   xmlns:dc="http://purl.org/dc/elements/1.1/"
   xmlns:cc="http://creativecommons.org/ns#"
   xmlns:rdf="http://www.w3.org/1999/02/22-rdf-syntax-ns#"
   xmlns:svg="http://www.w3.org/2000/svg"
   xmlns="http://www.w3.org/2000/svg"
   id="svg85"
   version="1.1"
   viewBox="0 0 661.45831 661.45831"
   height="661.45831mm"
   width="661.45831mm">
  <defs
     id="defs79" />
  <metadata
     id="metadata82">
    <rdf:RDF>
      <cc:Work
         rdf:about="">
        <dc:format>image/svg+xml</dc:format>
        <dc:type
           rdf:resource="http://purl.org/dc/dcmitype/StillImage" />
        <dc:title></dc:title>
      </cc:Work>
    </rdf:RDF>
  </metadata>
  <g
     transform="translate(283.10417,271.09821)"
     id="layer1">
    <path
       id="path4"
       d="M -283.10417,59.630957 V -271.09821 h 661.45833 v 661.45833 h -661.45833"
       class="st0"
       style="fill:#007acc;stroke-width:1.65364587" />
    <path
       id="path6"
       d="m -138.07943,60.788507 v 26.95443 h 85.989582 V 332.48252 H 8.9296819 V 87.742937 H 94.919272 v -26.45834 c 0,-14.88281 0,-26.95442 -0.66146,-27.28515 0,-0.4961 -52.42057,-0.66146 -116.08594,-0.66146 l -115.755212,0.49609 v 27.11979 z M 248.3776,33.172617 c 16.86719,3.96875 29.76563,11.57552 41.34115,23.64714 6.11849,6.61458 15.21354,18.1901 15.875,21.16667 0,0.99218 -28.60808,20.33984 -45.97136,31.088543 -0.66146,0.49609 -3.30729,-2.31511 -5.95312,-6.61459 -8.59896,-12.236983 -17.36328,-17.528643 -31.08854,-18.520833 -19.84375,-1.32292 -33.07292,9.09505 -33.07292,26.458333 0,5.29167 0.99219,8.26823 2.97656,12.56771 4.46485,9.09505 12.73307,14.55209 38.36458,25.79688 47.29428,20.33984 67.79948,33.73437 80.20183,52.91666 14.05599,21.4974 17.19791,55.23177 7.77213,80.53256 -10.58333,27.61588 -36.38021,46.30208 -73.25651,52.42057 -11.57552,1.98437 -38.03385,1.65364 -50.4362,-0.4961 -26.45833,-4.96093 -51.75911,-18.1901 -67.30338,-35.22265 -6.11849,-6.61458 -17.85938,-24.3086 -17.19792,-25.46615 l 6.28386,-3.96875 24.80468,-14.38672 18.6862,-10.91406 4.29948,5.78776 c 5.45703,8.59896 17.69401,20.17448 24.80469,24.14323 21.49739,11.07943 50.27083,9.59115 64.49219,-3.30729 6.11849,-5.6224 8.76432,-11.57552 8.76432,-19.84375 0,-7.60677 -1.15755,-11.07943 -4.96094,-16.86719 -5.29166,-7.27604 -15.875,-13.22916 -45.64062,-26.45833 -34.23047,-14.55208 -48.78256,-23.8125 -62.34245,-38.03386 -7.77214,-8.59895 -14.88281,-21.99349 -18.19011,-33.07291 -2.48046,-9.59115 -3.30729,-33.07292 -0.99218,-42.498703 7.11067,-33.07292 32.08073,-56.22396 67.79948,-62.83854 11.57552,-2.31511 38.86067,-1.32292 50.27083,1.65364 z"
       class="st1"
       style="fill:#ffffff;stroke-width:1.65364587" />
    <path
       id="path59"
       d="M -281.98306,59.350677 V -269.9771 H 47.344722 376.6725 V 59.350677 388.67846 H 47.344722 -281.98306 Z M 244.94138,335.25718 c 35.56063,-5.71667 61.90691,-23.59329 73.7354,-50.03141 4.2654,-9.5336 5.74763,-18.66689 5.72649,-35.28539 -0.058,-45.61658 -16.69529,-65.47504 -81.24807,-96.97884 -42.8766,-20.92513 -51.4668,-28.21334 -51.4668,-43.66602 0,-14.572373 10.23067,-23.318333 27.27685,-23.318333 14.43156,0 22.85055,4.31715 33.85341,17.359653 l 6.47583,7.67633 23.65415,-15.741493 c 13.00978,-8.65785 23.65412,-17.07451 23.65412,-18.70371 0,-1.62923 -7.94438,-10.71367 -17.65419,-20.18766 -23.13583,-22.57396 -36.73636,-27.34032 -74.24007,-26.01764 -31.07142,1.0958 -45.88325,6.6698 -63.69757,23.97083 -16.15813,15.69262 -22.17838,31.62853 -22.11546,58.540963 0.0446,19.00852 1.30601,25.25406 7.7701,38.46616 10.649,21.76579 24.85205,32.89914 70.43817,55.21444 42.0756,20.59683 50.74253,26.77933 53.6217,38.25089 4.58907,18.28435 -9.72812,32.16384 -35.06891,33.99682 -22.77417,1.64732 -34.71928,-3.07425 -51.8727,-20.50391 l -14.64339,-14.87927 -23.66579,13.78246 c -13.01617,7.58034 -24.07166,14.99489 -24.56775,16.4768 -1.48204,4.42703 15.38981,26.90746 27.23589,36.28974 20.4392,16.18814 49.25875,25.87274 82.9749,27.88307 3.08305,0.18385 13.80373,-0.9837 23.82369,-2.59448 z M 9.5070619,210.70132 V 88.779967 h 43.4432601 43.44323 v -28.02789 -28.0279 H -21.323628 -139.04078 v 28.0279 28.02789 h 43.443242 43.44323 V 210.70132 332.62267 h 30.83068 30.8306899 z"
       style="fill:#007acc;fill-opacity:1;stroke-width:2.80278969" />
    <path
       id="path61"
       d="M -281.98306,59.350677 V -269.9771 H 47.344722 376.6725 V 59.350677 388.67846 H 47.344722 -281.98306 Z m 548.429,270.196423 c 18.58762,-6.06541 38.59533,-21.43329 48.25691,-37.06609 13.0425,-21.10322 12.3498,-64.61421 -1.40325,-88.13855 -10.05654,-17.2016 -28.79513,-30.74871 -72.07138,-52.10429 -21.51486,-10.61697 -40.54658,-21.95039 -43.79495,-26.08004 -7.99994,-10.17031 -7.50623,-24.66046 1.13469,-33.301353 12.64275,-12.64277 42.32381,-7.94536 53.0288,8.392503 2.57678,3.93261 6.2325,7.1506 8.12387,7.15105 4.05847,0 46.88213,-28.477503 46.88213,-31.177413 0,-1.01785 -5.85525,-8.36309 -13.01168,-16.32276 -19.29164,-21.45694 -35.8399,-28.92882 -67.3635,-30.41602 -33.28053,-1.57009 -52.02473,3.95211 -70.84245,20.87086 -19.3711,17.41631 -26.12808,33.33964 -26.03164,61.345903 0.15161,44.08749 15.84566,63.07489 77.10739,93.28896 44.86196,22.12575 55.29726,30.37419 55.29726,43.70908 0,18.25123 -16.18081,29.67072 -42.04185,29.67072 -19.2954,0 -31.26274,-5.60609 -46.99531,-22.01486 l -13.29206,-13.86335 -24.51074,14.32319 c -13.48086,7.87773 -24.51068,15.46604 -24.51068,16.8629 0,1.39682 4.54155,8.72654 10.09237,16.28823 29.50779,40.1977 91.09768,56.47917 145.94607,38.58133 z M 9.5070619,210.70132 V 88.779967 h 43.4432601 43.44323 v -28.02789 -28.0279 H -21.323628 -139.04078 v 28.0279 28.02789 h 43.443242 43.44323 V 210.70132 332.62267 h 30.83068 30.8306899 z"
       style="fill:#007acc;fill-opacity:1;stroke-width:2.80278969" />
  </g>
</svg>
