<svg
   xmlns:dc="http://purl.org/dc/elements/1.1/"
   xmlns:cc="http://creativecommons.org/ns#"
   xmlns:rdf="http://www.w3.org/1999/02/22-rdf-syntax-ns#"
   xmlns:svg="http://www.w3.org/2000/svg"
   xmlns="http://www.w3.org/2000/svg"
   id="svg43"
   version="1.1"
   viewBox="0 0 128.81599 170.92599">
  <metadata
     id="metadata47">
    <rdf:RDF>
      <cc:Work
         rdf:about="">
        <dc:format>image/svg+xml</dc:format>
        <dc:type
           rdf:resource="http://purl.org/dc/dcmitype/StillImage" />
        <dc:title>eclipse</dc:title>
      </cc:Work>
    </rdf:RDF>
  </metadata>
  <title
     id="title2">eclipse</title>
  <defs
     id="defs19">
    <linearGradient
       gradientUnits="userSpaceOnUse"
       gradientTransform="scale(3.3647637,0.29719769)"
       id="eclipse-a"
       y2="-33.699943"
       x2="10.824089"
       y1="235.70566"
       x1="10.824089">
      <stop
         id="stop4"
         offset="30.33%"
         stop-color="#473788" />
      <stop
         id="stop6"
         offset="87.2%"
         stop-color="#2C2255" />
    </linearGradient>
    <linearGradient
       gradientUnits="userSpaceOnUse"
       gradientTransform="scale(3.365003,0.29717656)"
       id="eclipse-b"
       y2="-33.684395"
       x2="10.823252"
       y1="235.69834"
       x1="10.823252">
      <stop
         id="stop9"
         offset="30.33%"
         stop-color="#473788" />
      <stop
         id="stop11"
         offset="87.2%"
         stop-color="#2C2255" />
    </linearGradient>
    <linearGradient
       gradientUnits="userSpaceOnUse"
       gradientTransform="scale(1.7746237,0.56349974)"
       id="eclipse-c"
       y2="-17.770137"
       x2="20.522853"
       y1="124.3169"
       x1="20.522853">
      <stop
         id="stop14"
         offset="30.33%"
         stop-color="#473788" />
      <stop
         id="stop16"
         offset="86.31%"
         stop-color="#2C2255" />
    </linearGradient>
  </defs>
  <g
     transform="translate(-31,-2)"
     style="fill:none"
     id="g41">
    <path
       style="fill:#2c2255"
       id="path21"
       transform="translate(35,61)"
       d="M 32.863,71.697 H 14.596 c 2.419,8.27 6.907,15.681 13.477,22.232 10.475,10.442 23.071,15.656 37.8,15.656 a 57.54,57.54 0 0 0 8.568,-0.635 c 11.095,-1.67 20.808,-6.669 29.131,-15.021 6.613,-6.548 11.133,-13.962 13.57,-22.232 z" />
    <path
       style="fill:#2c2255"
       id="path23"
       transform="translate(47,107.757)"
       d="M 10.79,0.211 H 1.248 A 55.44,55.44 0 0 0 0.553,6.622 h 106.644 a 54.962,54.962 0 0 0 -0.7,-6.411 M 0.553,12.576 a 55.15,55.15 0 0 0 0.695,6.41 H 106.5 c 0.351,-2.088 0.591,-4.222 0.7,-6.41" />
    <path
       style="fill:#2c2255"
       id="path25"
       transform="translate(35,61)"
       d="M 117.144,41.014 C 114.709,32.721 110.188,25.275 103.572,18.679 95.272,10.405 85.585,5.441 74.527,3.771 A 57.763,57.763 0 0 0 65.873,3.126 c -14.729,0 -27.326,5.186 -37.8,15.553 -6.572,6.596 -11.062,14.042 -13.48,22.335" />
    <path
       style="fill:#f7941e"
       id="path27"
       transform="translate(35,61)"
       d="M 9.382,56.358 C 9.382,28.278 30.54,4.945 58.065,0.842 57.382,0.817 56.695,0.789 56.006,0.789 25.118,0.79 0.076,25.67 0.076,56.358 c 0,30.69 25.041,55.568 55.93,55.568 0.692,0 1.378,-0.026 2.063,-0.051 C 30.54,107.771 9.382,84.439 9.382,56.358 Z" />
    <path
       style="fill:url(#eclipse-a)"
       id="path29"
       transform="translate(64.455,107.757)"
       d="M 72.712,6.621 A 36.113,36.113 0 0 0 71.608,0.21 H 1.234 A 36.08,36.08 0 0 0 0.129,6.62 h 72.583 z" />
    <path
       style="fill:url(#eclipse-b)"
       id="path31"
       transform="translate(64.455,107.757)"
       d="M 72.712,12.576 H 0.13 c 0.179,2.197 0.549,4.34 1.104,6.41 h 70.375 c 0.555,-2.07 0.924,-4.213 1.103,-6.41 z" />
    <path
       style="fill:url(#eclipse-c)"
       id="path33"
       transform="translate(64.455,107.757)"
       d="m 36.421,45.906 c 14.615,0 27.213,-8.583 33.014,-20.966 H 3.407 c 5.801,12.383 18.4,20.966 33.014,20.966 z" />
    <path
       style="fill:#ffffff"
       id="path35"
       transform="translate(47,101.233)"
       d="m 12.205,19.1 h 94.92 c 0.05,-0.947 0.079,-1.9 0.079,-2.861 0,-1.039 -0.039,-2.068 -0.097,-3.094 H 0.553 a 53.838,53.838 0 0 0 -0.097,3.094 c 0,0.96 0.028,1.914 0.079,2.86 h 11.67 z M 20.649,0.78 H 2.592 C 1.999,2.72 1.616,4.708 1.248,6.735 H 106.161 A 52.69,52.69 0 0 0 104.725,0.781 M 99.301,25.51 H 1.247 c 0.358,2.026 0.765,4.013 1.348,5.954 h 102.479 a 52.565,52.565 0 0 0 1.412,-5.954 H 99.3 Z" />
    <path
       style="fill:#f7941e"
       id="path37"
       transform="translate(31,2)"
       d="m 55.396,0 h 3.95 v 5.002 h -3.95 z" />
    <path
       style="fill:#2c2255"
       id="path39"
       transform="translate(31,2)"
       d="m 22.284,20.523 v 1.932 H 4.122 c 0.171,2.72 0.99,4.791 2.458,6.215 1.467,1.425 3.51,2.136 6.129,2.136 1.517,0 2.988,-0.186 4.412,-0.557 a 19.601,19.601 0 0 0 4.24,-1.675 v 3.736 a 23.718,23.718 0 0 1 -4.358,1.374 21.85,21.85 0 0 1 -4.53,0.473 C 8.638,34.157 5.6,33.041 3.36,30.807 1.12,28.574 0,25.556 0,21.75 0,17.814 1.063,14.69 3.188,12.378 5.313,10.068 8.18,8.911 11.786,8.911 c 3.235,0 5.793,1.041 7.675,3.124 1.882,2.08 2.823,4.911 2.823,8.489 z m -3.95,-1.16 c -0.029,-2.16 -0.633,-3.885 -1.814,-5.173 -1.181,-1.288 -2.745,-1.932 -4.69,-1.932 -2.205,0 -3.97,0.623 -5.293,1.868 -1.324,1.245 -2.086,2.998 -2.286,5.26 l 14.083,-0.022 z m 24.318,-8.95 v 3.693 a 15.408,15.408 0 0 0 -3.36,-1.385 12.823,12.823 0 0 0 -3.403,-0.461 c -2.562,0 -4.551,0.812 -5.968,2.436 -1.417,1.624 -2.125,3.904 -2.125,6.837 0,2.934 0.708,5.214 2.125,6.838 1.417,1.626 3.406,2.437 5.968,2.437 1.145,0 2.28,-0.154 3.403,-0.46 a 15.389,15.389 0 0 0 3.36,-1.386 v 3.65 a 16.226,16.226 0 0 1 -3.424,1.158 17.625,17.625 0 0 1 -3.768,0.387 c -3.622,0 -6.498,-1.138 -8.63,-3.414 -2.133,-2.275 -3.2,-5.345 -3.2,-9.21 0,-3.92 1.077,-7.005 3.231,-9.252 2.154,-2.247 5.107,-3.371 8.856,-3.371 1.217,0 2.405,0.126 3.564,0.376 1.16,0.25 2.283,0.626 3.371,1.127 M 46.486,0 h 3.951 v 33.405 h -3.951 z m 8.91,9.297 h 3.95 v 24.045 h -3.95 z M 67.89,29.928 V 42.68 H 63.92 V 9.49 h 3.971 v 3.65 c 0.831,-1.431 1.88,-2.495 3.146,-3.189 1.267,-0.693 2.78,-1.041 4.54,-1.041 2.92,0 5.293,1.159 7.117,3.478 1.825,2.32 2.737,5.368 2.737,9.145 0,3.78 -0.912,6.828 -2.737,9.146 -1.824,2.318 -4.196,3.478 -7.116,3.478 -1.76,0 -3.274,-0.347 -4.541,-1.041 -1.267,-0.694 -2.316,-1.757 -3.146,-3.188 m 13.44,-8.395 c 0,-2.905 -0.598,-5.184 -1.793,-6.837 -1.195,-1.653 -2.837,-2.48 -4.927,-2.48 -2.09,0 -3.733,0.827 -4.927,2.48 -1.195,1.653 -1.793,3.932 -1.793,6.837 0,2.906 0.598,5.186 1.793,6.838 1.194,1.654 2.837,2.48 4.927,2.48 2.09,0 3.732,-0.827 4.927,-2.48 1.195,-1.652 1.793,-3.932 1.793,-6.838 m 22.922,-11.334 v 3.735 a 15.48,15.48 0 0 0 -3.478,-1.288 16.095,16.095 0 0 0 -3.736,-0.429 c -1.961,0 -3.431,0.3 -4.412,0.902 -0.98,0.6 -1.47,1.503 -1.47,2.705 0,0.915 0.35,1.635 1.051,2.157 0.701,0.523 2.11,1.02 4.23,1.493 l 1.352,0.3 c 2.805,0.601 4.798,1.449 5.98,2.544 1.18,1.095 1.77,2.623 1.77,4.583 0,2.233 -0.883,4 -2.652,5.303 -1.767,1.302 -4.196,1.953 -7.288,1.953 -1.287,0 -2.63,-0.125 -4.026,-0.375 a 33.645,33.645 0 0 1 -4.412,-1.127 v -4.08 c 1.461,0.76 2.899,1.328 4.316,1.708 1.417,0.38 2.82,0.568 4.207,0.568 1.861,0 3.292,-0.318 4.294,-0.955 1.002,-0.637 1.503,-1.535 1.503,-2.694 0,-1.073 -0.361,-1.896 -1.084,-2.47 -0.723,-0.572 -2.308,-1.123 -4.756,-1.653 l -1.373,-0.322 c -2.447,-0.515 -4.215,-1.305 -5.303,-2.372 -1.088,-1.066 -1.631,-2.529 -1.631,-4.39 0,-2.262 0.801,-4.007 2.404,-5.238 1.603,-1.231 3.879,-1.847 6.827,-1.847 1.46,0 2.834,0.107 4.122,0.321 1.289,0.217 2.477,0.538 3.565,0.968 m 24.563,10.324 v 1.932 h -18.163 c 0.172,2.72 0.99,4.791 2.459,6.215 1.466,1.425 3.51,2.136 6.128,2.136 1.518,0 2.988,-0.186 4.413,-0.557 a 19.596,19.596 0 0 0 4.24,-1.675 v 3.736 a 23.731,23.731 0 0 1 -4.359,1.374 21.84,21.84 0 0 1 -4.529,0.473 c -3.836,0 -6.874,-1.116 -9.113,-3.35 -2.24,-2.233 -3.36,-5.251 -3.36,-9.058 0,-3.936 1.063,-7.06 3.187,-9.372 2.126,-2.311 4.993,-3.467 8.599,-3.467 3.234,0 5.793,1.041 7.675,3.124 1.881,2.08 2.823,4.911 2.823,8.489 z m -3.95,-1.16 c -0.03,-2.16 -0.634,-3.885 -1.815,-5.173 -1.182,-1.288 -2.746,-1.932 -4.69,-1.932 -2.204,0 -3.969,0.623 -5.292,1.868 -1.324,1.245 -2.088,2.998 -2.287,5.26 l 14.083,-0.022 z" />
  </g>
</svg>
