<?xml version="1.0" encoding="UTF-8" standalone="no"?>
<svg
   xmlns:dc="http://purl.org/dc/elements/1.1/"
   xmlns:cc="http://creativecommons.org/ns#"
   xmlns:rdf="http://www.w3.org/1999/02/22-rdf-syntax-ns#"
   xmlns:svg="http://www.w3.org/2000/svg"
   xmlns="http://www.w3.org/2000/svg"
   id="svg108"
   version="1.1"
   viewBox="0 0 156.05801 95.577782"
   height="95.577782mm"
   width="156.05801mm">
  <defs
     id="defs102">
    <clipPath
       id="e">
      <path
         id="path22"
         d="m 241.066,225.953 c -0.707,0.07 -1.398,0.29 -2.035,0.652 l -42.01,24.247 45.3,82.51 c 0.63,-0.09 1.25,-0.3 1.81,-0.624 l 42.13,-24.336 c 1.3,-0.754 2.19,-2.03 2.46,-3.476 l -46.18,-78.89 c -0.34,-0.067 -0.68,-0.102 -1.03,-0.102 -0.14,0 -0.28,0.007 -0.42,0.02" />
    </clipPath>
    <linearGradient
       gradientUnits="userSpaceOnUse"
       gradientTransform="matrix(97.417,0,0,97.417,192.862,279.652)"
       x2="0.98400003"
       x1="0.043000001"
       id="f">
      <stop
         id="stop25"
         stop-color="#6BBF47"
         offset=".16" />
      <stop
         id="stop27"
         stop-color="#79B461"
         offset=".38" />
      <stop
         id="stop29"
         stop-color="#75AC64"
         offset=".47" />
      <stop
         id="stop31"
         stop-color="#659E5A"
         offset=".7" />
      <stop
         id="stop33"
         stop-color="#3E863D"
         offset=".9" />
    </linearGradient>
    <clipPath
       id="c">
      <path
         id="path12"
         d="m 195.398,307.086 c 0.403,0.523 0.907,0.976 1.5,1.316 l 36.14,20.875 6.02,3.46 c 0.9,0.52 1.926,0.74 2.934,0.665 0.336,-0.027 0.672,-0.09 1,-0.183 l 44.434,-81.36 c -0.34,-0.37 -0.738,-0.68 -1.184,-0.94 l -27.586,-15.93 -14.582,-8.39 c -0.414,-0.24 -0.863,-0.41 -1.32,-0.53 z m 0,0" />
    </clipPath>
    <linearGradient
       gradientUnits="userSpaceOnUse"
       gradientTransform="matrix(106.8057,-78.916731,78.916731,106.8057,235.18824,285.39477)"
       x2="0.58200002"
       x1="-0.456"
       id="d">
      <stop
         id="stop15"
         stop-color="#3E863D"
         offset=".57" />
      <stop
         id="stop17"
         stop-color="#619857"
         offset=".72" />
      <stop
         id="stop19"
         stop-color="#76AC64"
         offset="1" />
    </linearGradient>
    <clipPath
       id="a">
      <path
         id="path2"
         d="m 239.03,226.605 -42.13,24.317 c -1.578,0.91 -2.546,2.59 -2.546,4.406 v 48.668 c 0,1.817 0.968,3.496 2.546,4.406 l 42.133,24.336 c 1.575,0.907 3.517,0.907 5.09,0 l 42.126,-24.336 c 1.57,-0.91 2.54,-2.59 2.54,-4.406 v -48.668 c 0,-1.816 -0.97,-3.496 -2.55,-4.406 l -42.12,-24.317 c -0.79,-0.453 -1.67,-0.68 -2.55,-0.68 -0.88,0 -1.76,0.227 -2.55,0.68" />
    </clipPath>
    <linearGradient
       gradientUnits="userSpaceOnUse"
       gradientTransform="matrix(-38.064915,77.652126,-77.652126,-38.064915,258.72325,244.62943)"
       x2="1.251"
       x1="-0.34799999"
       id="b">
      <stop
         id="stop5"
         stop-color="#3E863D"
         offset=".3" />
      <stop
         id="stop7"
         stop-color="#55934F"
         offset=".5" />
      <stop
         id="stop9"
         stop-color="#5AAD45"
         offset=".8" />
    </linearGradient>
  </defs>
  <metadata
     id="metadata105">
    <rdf:RDF>
      <cc:Work
         rdf:about="">
        <dc:format>image/svg+xml</dc:format>
        <dc:type
           rdf:resource="http://purl.org/dc/dcmitype/StillImage" />
        <dc:title></dc:title>
      </cc:Work>
    </rdf:RDF>
  </metadata>
  <g
     transform="translate(-74.673371,-224.26471)"
     id="layer1">
    <path
       id="path38"
       d="m 151.80703,319.84249 c -0.51505,0 -1.02658,-0.13511 -1.47813,-0.39511 l -4.70499,-2.78553 c -0.70273,-0.39299 -0.35984,-0.53199 -0.12806,-0.61207 0.93698,-0.32808 1.12712,-0.40217 2.12725,-0.97014 0.10512,-0.06 0.24271,-0.0388 0.3503,0.0247 l 3.61456,2.14489 c 0.13053,0.0706 0.31573,0.0706 0.43674,0 l 14.09344,-8.13504 c 0.13053,-0.0741 0.2152,-0.22578 0.2152,-0.381 v -16.26303 c 0,-0.16228 -0.0847,-0.30692 -0.21802,-0.38806 l -14.0878,-8.12798 c -0.13053,-0.0776 -0.30339,-0.0776 -0.43392,0 l -14.08498,8.12798 c -0.13652,0.0776 -0.2233,0.22931 -0.2233,0.38453 v 16.26303 c 0,0.15522 0.0847,0.30339 0.21872,0.37747 l 3.85938,2.22955 c 2.09549,1.04775 3.37608,-0.18697 3.37608,-1.42875 v -16.05136 c 0,-0.2293 0.17991,-0.40569 0.40922,-0.40569 h 1.78505 c 0.22225,0 0.40569,0.17639 0.40569,0.40569 v 16.05842 c 0,2.79399 -1.52399,4.39913 -4.17335,4.39913 -0.81492,0 -1.45697,0 -3.24908,-0.88194 l -3.6971,-2.13078 c -0.9137,-0.52916 -1.47814,-1.51694 -1.47814,-2.57174 v -16.26303 c 0,-1.05833 0.56444,-2.04611 1.47814,-2.56822 l 14.10755,-8.13856 c 0.89253,-0.50447 2.07786,-0.50447 2.96333,0 l 14.08992,8.14209 c 0.91017,0.52564 1.47814,1.50989 1.47814,2.56822 v 16.26303 c 0,1.0548 -0.56797,2.03905 -1.47814,2.56821 l -14.08992,8.13857 c -0.45155,0.26106 -0.96308,0.39511 -1.48519,0.39511"
       style="fill:#689f63;stroke-width:0.35277712" />
    <path
       id="path40"
       d="m 156.1603,308.63617 c -6.16654,0 -7.45947,-2.83068 -7.45947,-5.20487 0,-0.22578 0.18203,-0.4057 0.40816,-0.4057 h 1.82033 c 0.20109,0 0.37042,0.1464 0.40217,0.34502 0.27517,1.8549 1.09361,2.79046 4.82246,2.79046 2.97039,0 4.23333,-0.67098 4.23333,-2.24613 0,-0.90664 -0.35983,-1.58044 -4.97416,-2.03199 -3.85938,-0.381 -6.24416,-1.2312 -6.24416,-4.31799 0,-2.84339 2.39889,-4.53672 6.41702,-4.53672 4.51202,0 6.74863,1.56633 7.03085,4.93183 0.0106,0.11641 -0.0317,0.2293 -0.10936,0.31397 -0.0776,0.0811 -0.18697,0.13053 -0.29986,0.13053 h -1.83091 c -0.1905,0 -0.35631,-0.13406 -0.39512,-0.3175 -0.44097,-1.95086 -1.50635,-2.57528 -4.40265,-2.57528 -3.24203,0 -3.6195,1.12889 -3.6195,1.97555 0,1.02659 0.4445,1.32645 4.81894,1.905 4.3321,0.57503 6.38879,1.38641 6.38879,4.43088 0,3.06916 -2.56116,4.82952 -7.02732,4.82952 m 17.16614,-17.24727 h 0.47272 c 0.38805,0 0.46214,-0.27164 0.46214,-0.43039 0,-0.41628 -0.28575,-0.41628 -0.4445,-0.41628 h -0.48683 z m -0.57503,-1.3335 h 1.04775 c 0.35983,0 1.06539,0 1.06539,0.80433 0,0.56092 -0.35984,0.67733 -0.57503,0.74789 0.4198,0.0282 0.44803,0.30339 0.50447,0.69144 0.0282,0.24342 0.0741,0.66322 0.15875,0.80433 h -0.64558 c -0.0177,-0.14111 -0.11642,-0.91722 -0.11642,-0.95955 -0.0423,-0.17286 -0.1023,-0.25753 -0.3175,-0.25753 h -0.53269 v 1.22061 h -0.58914 z m -1.25942,1.51694 c 0,1.26294 1.01953,2.286 2.27189,2.286 1.26294,0 2.28247,-1.04422 2.28247,-2.286 0,-1.26647 -1.03364,-2.27189 -2.286,-2.27189 -1.23472,0 -2.27188,0.99131 -2.27188,2.26836 m 4.99532,0.0106 c 0,1.49578 -1.22413,2.71639 -2.71638,2.71639 -1.48167,0 -2.71639,-1.2065 -2.71639,-2.71639 0,-1.5381 1.26295,-2.71638 2.71639,-2.71638 1.46402,0 2.71285,1.1818 2.71285,2.71638"
       style="fill:#689f63;stroke-width:0.35277712" />
    <path
       id="path42"
       d="m 108.16462,256.20855 c 0,-0.64911 -0.34219,-1.2453 -0.9024,-1.5681 l -14.942231,-8.59717 c -0.252236,-0.14817 -0.53481,-0.22578 -0.821265,-0.23637 h -0.154517 c -0.286455,0.0106 -0.569029,0.0882 -0.825498,0.23637 l -14.941523,8.59717 c -0.556682,0.32456 -0.903815,0.92075 -0.903815,1.56986 l 0.03281,23.15629 c 0,0.32103 0.165805,0.62089 0.448027,0.77964 0.275166,0.16933 0.620888,0.16933 0.896054,0 l 8.882929,-5.08705 c 0.560915,-0.33372 0.903109,-0.92357 0.903109,-1.56633 v -10.81791 c 0,-0.64558 0.342194,-1.24177 0.901345,-1.5628 l 3.781771,-2.17804 c 0.280811,-0.16228 0.589138,-0.24272 0.90311,-0.24272 0.309032,0 0.624415,0.0797 0.897465,0.24236 l 3.780007,2.17734 c 0.559504,0.32103 0.903109,0.91722 0.903109,1.56281 v 10.8172 c 0,0.64206 0.34678,1.23472 0.904874,1.56633 l 8.877279,5.08352 c 0.2787,0.16581 0.62547,0.16581 0.90311,0 0.27376,-0.15875 0.44732,-0.45861 0.44732,-0.77964 z m 70.50886,12.05651 c 0,0.16122 -0.0857,0.31044 -0.22578,0.39017 l -5.1322,2.95839 c -0.13934,0.0801 -0.3115,0.0801 -0.45049,0 l -5.13291,-2.95839 c -0.14111,-0.0801 -0.22578,-0.2293 -0.22578,-0.39017 v -5.92524 c 0,-0.16158 0.0847,-0.31045 0.22225,-0.39159 l 5.12938,-2.96332 c 0.14111,-0.0811 0.31397,-0.0811 0.45508,0 l 5.13291,2.96332 c 0.14111,0.0811 0.22578,0.23001 0.22578,0.39159 z m 1.38641,-43.88618 c -0.2801,-0.15593 -0.62088,-0.1517 -0.89746,0.01 -0.27517,0.16228 -0.4452,0.45861 -0.4452,0.77964 v 22.93051 c 0,0.22578 -0.11995,0.43392 -0.31539,0.54681 -0.19402,0.11289 -0.43568,0.11289 -0.63147,0 l -3.74297,-2.15582 c -0.55738,-0.32244 -1.24389,-0.32244 -1.80339,0 l -14.94717,8.62646 c -0.55845,0.32103 -0.90311,0.91722 -0.90311,1.55927 v 17.25786 c 0,0.64558 0.34466,1.23825 0.90311,1.5628 l 14.94717,8.63246 c 0.55809,0.32103 1.2453,0.32103 1.80516,0 l 14.94717,-8.63599 c 0.55738,-0.32455 0.90311,-0.91722 0.90311,-1.5628 v -43.01059 c 0,-0.65475 -0.35631,-1.25694 -0.92781,-1.57691 z m 49.77439,37.80501 c 0.55527,-0.32244 0.89711,-0.91793 0.89711,-1.55998 v -4.18253 c 0,-0.64346 -0.34219,-1.23719 -0.89852,-1.56104 l -14.85192,-8.62187 c -0.56092,-0.32456 -1.24883,-0.32456 -1.80975,0 l -14.94364,8.6254 c -0.56091,0.32456 -0.90311,0.91722 -0.90311,1.5628 v 17.2508 c 0,0.64911 0.34925,1.24884 0.91017,1.56986 l 14.84839,8.46313 c 0.5468,0.31397 1.21708,0.3175 1.77094,0.0106 l 8.98171,-4.9918 c 0.28222,-0.15875 0.46213,-0.45861 0.46213,-0.78316 0,-0.32456 -0.17286,-0.62795 -0.45508,-0.7867 l -15.03536,-8.62893 c -0.28222,-0.15875 -0.45508,-0.45861 -0.45508,-0.77964 v -5.41159 c 0,-0.32315 0.16933,-0.62089 0.45155,-0.78176 l 4.67783,-2.69874 c 0.27869,-0.16228 0.62088,-0.16228 0.89958,0 l 4.68135,2.69874 c 0.2787,0.15875 0.45156,0.45861 0.45156,0.77964 v 4.25449 c 0,0.32103 0.17286,0.62089 0.45155,0.78316 0.27869,0.15875 0.62442,0.15875 0.90311,-0.003 z m 0,0"
       style="fill:#333333;fill-rule:evenodd;stroke-width:0.35277712" />
    <path
       id="path44"
       d="m 213.85736,261.37673 c 0.10583,-0.0624 0.23847,-0.0624 0.34572,0 l 2.86807,1.65453 c 0.10725,0.0621 0.17286,0.17639 0.17286,0.29986 v 3.31258 c 0,0.12347 -0.0656,0.23777 -0.17286,0.29986 l -2.86807,1.65452 c -0.10725,0.0624 -0.23989,0.0624 -0.34572,0 l -2.86632,-1.65452 c -0.10936,-0.0621 -0.17639,-0.17639 -0.17639,-0.29986 v -3.31258 c 0,-0.12347 0.0635,-0.23777 0.17286,-0.29986 z m 0,0"
       style="fill:#689f63;fill-rule:evenodd;stroke-width:0.35277712" />
    <g
       id="g48"
       transform="matrix(0.35277713,0,0,0.35277713,47.048805,166.40348)"
       clip-path="url(#a)">
      <path
         id="path46"
         d="m 331.363,246.793 -118.715,-58.19 -60.87,124.174 118.712,58.193 z m 0,0"
         style="fill:url(#b)" />
    </g>
    <g
       id="g52"
       transform="matrix(0.35277713,0,0,0.35277713,47.048805,166.40348)"
       clip-path="url(#c)">
      <path
         id="path50"
         d="m 144.07,264.004 83.825,113.453 110.86,-81.906 -83.83,-113.45 z m 0,0"
         style="fill:url(#d)" />
    </g>
    <g
       id="g56"
       transform="matrix(0.35277713,0,0,0.35277713,47.048805,166.40348)"
       clip-path="url(#e)">
      <path
         id="path54"
         d="m 197.02,225.934 v 107.43 h 91.683 v -107.43 z m 0,0"
         style="fill:url(#f)" />
    </g>
  </g>
</svg>
