<?xml version="1.0" standalone="no"?>
<!DOCTYPE svg PUBLIC "-//W3C//DTD SVG 20010904//EN"
 "http://www.w3.org/TR/2001/REC-SVG-20010904/DTD/svg10.dtd">
<svg version="1.0" xmlns="http://www.w3.org/2000/svg"
 width="683.000000pt" height="680.000000pt" viewBox="0 0 683.000000 680.000000"
 preserveAspectRatio="xMidYMid meet">
<metadata>
Created by potrace 1.15, written by Peter Selinger 2001-2017
</metadata>
<g transform="translate(0.000000,680.000000) scale(0.100000,-0.100000)"
fill="#000000" stroke="none">
<path d="M3170 6125 c-545 -68 -1032 -353 -1359 -795 -443 -598 -512 -1406
-179 -2075 93 -186 198 -334 348 -489 310 -322 711 -528 1151 -591 136 -19
432 -19 568 0 570 81 1076 406 1393 895 402 619 420 1445 44 2083 -155 265
-356 478 -610 649 -397 266 -882 382 -1356 323z m510 -1240 l0 -435 55 0 55 0
0 361 0 361 38 -23 c234 -140 365 -384 379 -706 l6 -123 58 0 59 0 0 -85 0
-85 -915 0 -915 0 0 85 0 85 58 0 57 0 0 143 c0 165 15 236 76 363 66 135 159
232 307 320 l42 25 0 -360 0 -361 60 0 60 0 0 435 0 435 260 0 260 0 0 -435z
m-660 -950 c0 -123 40 -226 120 -305 154 -155 396 -155 550 0 80 79 120 182
120 305 l0 55 260 0 260 0 0 -170 0 -170 -106 0 -105 0 -34 -72 -34 -73 72
-67 71 -66 -101 -109 c-56 -59 -115 -121 -132 -138 l-31 -29 -74 73 -75 74
-80 -33 -80 -33 -3 -101 -3 -101 -200 0 -200 0 -3 101 -3 101 -80 33 -80 33
-75 -74 -74 -73 -31 29 c-17 17 -76 79 -132 138 l-101 109 71 66 72 67 -34 73
-34 72 -105 0 -106 0 0 170 0 170 260 0 260 0 0 -55z"/>
<path d="M1975 1485 c-27 -27 -33 -76 -14 -118 23 -51 109 -63 156 -23 38 33
40 102 4 140 -34 36 -111 37 -146 1z"/>
<path d="M1320 1075 l0 -415 79 0 79 0 4 183 c2 148 6 188 20 213 48 88 171
90 215 3 9 -16 13 -83 13 -211 l0 -188 86 0 86 0 -4 223 c-3 210 -4 225 -27
270 -60 123 -234 163 -354 81 l-37 -25 0 141 0 140 -80 0 -80 0 0 -415z"/>
<path d="M3610 1481 c-167 -36 -234 -223 -122 -343 25 -26 80 -60 172 -106
150 -75 175 -98 175 -165 0 -111 -143 -182 -260 -128 -38 17 -107 83 -117 111
-3 10 -11 9 -36 -5 -18 -11 -32 -22 -32 -26 0 -4 15 -29 33 -55 47 -71 133
-114 229 -114 97 0 144 16 199 70 54 52 75 109 65 179 -12 90 -64 139 -219
207 -147 65 -199 124 -177 203 17 65 71 101 150 101 59 0 118 -26 149 -66 20
-25 23 -26 47 -13 39 21 40 37 4 74 -58 60 -175 94 -260 76z"/>
<path d="M110 1458 c0 -7 59 -190 131 -405 l131 -393 73 0 73 0 83 253 82 252
82 -250 82 -250 74 -3 74 -3 133 398 c72 219 132 402 132 406 0 4 -42 7 -93 7
l-94 0 -68 -232 c-37 -128 -72 -244 -77 -258 -9 -22 -17 -6 -64 130 -30 85
-70 201 -90 258 l-36 102 -57 0 -56 0 -84 -250 c-46 -138 -87 -253 -91 -255
-3 -2 -40 110 -81 248 l-75 252 -92 3 c-70 2 -92 0 -92 -10z"/>
<path d="M2300 1365 l0 -105 -50 0 -50 0 0 -70 0 -70 49 0 49 0 4 -167 c3
-150 6 -172 25 -210 36 -67 74 -87 170 -92 81 -3 174 17 189 40 6 11 -34 129
-45 129 -3 0 -28 -7 -54 -15 -31 -9 -56 -11 -70 -6 -46 18 -52 36 -55 183 l-4
138 101 0 101 0 0 70 0 70 -100 0 -100 0 0 105 0 105 -80 0 -80 0 0 -105z"/>
<path d="M2953 1270 c-86 -18 -159 -74 -201 -154 -24 -46 -27 -61 -27 -156 0
-89 3 -111 22 -146 34 -64 71 -103 127 -132 47 -25 60 -27 171 -27 123 0 166
11 243 61 l22 15 -32 58 -32 58 -56 -26 c-69 -32 -169 -40 -223 -18 -32 14
-77 66 -77 90 0 4 99 7 220 7 l220 0 0 68 c0 135 -51 227 -153 276 -59 29
-158 40 -224 26z m142 -150 c34 -16 75 -62 75 -84 0 -3 -63 -6 -140 -6 -77 0
-140 3 -140 6 0 21 41 67 75 84 50 25 78 25 130 0z"/>
<path d="M5391 1259 c-29 -6 -56 -20 -78 -41 l-33 -32 0 32 c0 30 -2 32 -35
32 l-35 0 0 -295 0 -295 34 0 35 0 3 203 c3 186 5 205 25 243 32 60 80 87 148
82 l54 -3 6 34 c3 18 5 34 3 36 -11 8 -90 11 -127 4z"/>
<path d="M1970 960 l0 -300 80 0 80 0 0 300 0 300 -80 0 -80 0 0 -300z"/>
<path d="M4150 1243 c-61 -22 -142 -104 -163 -167 -21 -62 -22 -178 -1 -238
19 -58 73 -120 132 -155 39 -23 60 -28 138 -31 82 -4 98 -2 146 21 67 30 123
85 152 146 31 67 30 208 -2 272 -31 63 -85 117 -146 145 -62 29 -184 32 -256
7z m252 -90 c96 -69 127 -205 70 -314 -40 -76 -94 -112 -176 -117 -76 -5 -126
9 -172 51 -126 110 -102 316 46 394 38 21 56 24 117 21 61 -3 78 -8 115 -35z"/>
<path d="M5725 1248 c-130 -47 -202 -165 -193 -317 7 -118 62 -206 161 -258
40 -21 177 -29 233 -14 56 15 129 66 155 107 12 19 20 36 18 38 -55 37 -56 37
-83 2 -37 -49 -117 -86 -185 -86 -134 1 -222 95 -222 235 0 142 91 235 228
235 74 0 130 -26 174 -78 32 -39 34 -40 61 -26 16 8 28 22 28 31 0 28 -93 109
-145 127 -55 18 -183 21 -230 4z"/>
<path d="M6324 1241 c-91 -41 -149 -122 -164 -229 -16 -118 23 -240 97 -301
58 -48 120 -64 227 -59 76 3 102 9 159 35 37 18 67 37 67 43 0 6 -7 21 -15 34
l-15 23 -60 -30 c-87 -43 -187 -49 -262 -15 -61 28 -93 66 -114 134 l-13 44
244 0 245 0 0 73 c0 118 -51 201 -150 246 -60 28 -187 29 -246 2z m203 -62
c46 -17 92 -69 108 -123 8 -27 15 -53 15 -58 0 -4 -94 -8 -210 -8 l-209 0 14
45 c18 62 59 113 109 136 46 21 129 25 173 8z"/>
<path d="M4632 1032 c3 -211 4 -219 29 -267 15 -30 42 -62 68 -80 41 -29 47
-30 146 -30 99 0 105 1 146 30 26 18 53 50 68 80 25 48 26 56 29 267 l4 218
-41 0 -41 0 0 -203 c0 -193 -1 -206 -23 -247 -28 -54 -75 -80 -142 -80 -65 0
-114 26 -142 76 -21 37 -23 50 -23 247 l0 207 -41 0 -40 0 3 -218z"/>
</g>
</svg>
