<?xml version="1.0" encoding="UTF-8" standalone="no"?>
<svg
   xmlns:dc="http://purl.org/dc/elements/1.1/"
   xmlns:cc="http://creativecommons.org/ns#"
   xmlns:rdf="http://www.w3.org/1999/02/22-rdf-syntax-ns#"
   xmlns:svg="http://www.w3.org/2000/svg"
   xmlns="http://www.w3.org/2000/svg"
   id="svg14"
   viewBox="0 0 464.005 464.06601"
   version="1.1">
  <metadata
     id="metadata20">
    <rdf:RDF>
      <cc:Work
         rdf:about="">
        <dc:format>image/svg+xml</dc:format>
        <dc:type
           rdf:resource="http://purl.org/dc/dcmitype/StillImage" />
        <dc:title></dc:title>
      </cc:Work>
    </rdf:RDF>
  </metadata>
  <defs
     id="defs18" />
  <g
     transform="translate(-23.993,-23.972)"
     id="g2" />
  <path
     style="fill:#21759b"
     id="path4"
     d="m 429.506,232.704 c 0,-20.459 -3.164,-40.263 -8.899,-58.819 L 332.43,402.718 c 58.082,-34.365 97.075,-97.618 97.075,-170.014 z" />
  <path
     style="fill:#21759b"
     id="path6"
     d="m 169.635,419.912 c 19.63,6.594 40.642,10.137 62.526,10.137 22.866,0 44.769,-3.87 65.188,-11.029 L 237.107,262.84 169.636,419.912 Z" />
  <path
     style="fill:#21759b"
     id="path8"
     d="m 42.844,176.916 c -5.212,17.684 -8.059,36.403 -8.059,55.787 0,73.954 40.714,138.393 100.894,172.155 L 43.448,178.155 Z" />
  <path
     style="fill:#21759b"
     id="path10"
     d="m 143.39,164.188 -8.478,-0.379 c -18.494,-0.307 -16.446,18.893 -16.446,18.893 l 65.618,164.577 44.114,-105.37 -24.627,-62.7 c -9.861,-16.578 -33.925,-16.404 -33.925,-16.404 v -8.734 H 307.62 l -0.205,9.687 -14.356,0.891 c -17.879,0 -14.264,17.008 -14.264,17.008 l 59.873,159.939 17.162,-44.288 c 30.443,-69.017 11.663,-120.094 11.663,-120.094 -30.485,-62.72 8.038,-71.721 8.038,-71.721 2.437,-0.348 4.721,-0.542 6.963,-0.645 C 346.295,62.311 292.372,35.329 232.171,35.329 150.773,35.329 80.855,84.655 50.697,155.035 l 92.365,-0.952 0.327,10.107 z" />
  <path
     style="fill:#21759b"
     id="path12"
     d="m 453.846,232.049 c 0,122.306 -99.522,221.839 -221.798,221.839 -122.338,0 -221.86,-99.533 -221.86,-221.839 0,-122.338 99.522,-221.829 221.86,-221.829 122.276,0.01 221.798,99.492 221.798,221.829 z M 232.048,0 C 104.109,0 0,104.11 0,232.059 0,360.008 104.11,464.066 232.048,464.066 359.966,464.066 464.005,360.007 464.005,232.059 464.005,104.11 359.967,0 232.048,0 Z" />
</svg>
